<?xml version="1.0" encoding="utf-8"?>
<!-- Generator: Adobe Illustrator 22.0.1, SVG Export Plug-In . SVG Version: 6.00 Build 0)  -->
<svg version="1.1" id="Layer_1" xmlns="http://www.w3.org/2000/svg" xmlns:xlink="http://www.w3.org/1999/xlink" x="0px" y="0px"
	 viewBox="0 0 200.5 196.1" style="enable-background:new 0 0 200.5 196.1;" xml:space="preserve">
<style type="text/css">
	.st0{fill:#4C4C4C;}
	.st1{fill:#231F20;}
	.st2{font-family:'iCielPanton-Black';}
	.st3{font-size:27.514px;}
</style>
<polygon class="st0" points="151,137 126,137 76,2 101,2 "/>
<polygon class="st0" points="200,137 175,137 125,2 150,2 "/>
<polygon class="st0" points="125,137 150,137 200,2 175,2 "/>
<rect x="112.5" y="2" class="st0" width="25" height="135"/>
<rect x="157.3" y="57" class="st0" width="42.7" height="25"/>
<g>
	<polygon points="51,2.1 51,2 26,2 38.5,35.8 	"/>
	<polygon points="63.5,35.8 51,69.6 76,137 101,137 	"/>
</g>
<polygon points="75,137 100,137 150,2 125,2 "/>
<polygon points="26,137 51,137 101,2 76,2 "/>
<polygon points="13.5,37.1 1,70.8 25.5,137 50.5,137 "/>
<polygon points="13.5,104.6 51.5,2 26.5,2 1,70.8 "/>
<rect x="1" y="146" class="st1" width="201.5" height="10.5"/>
<text transform="matrix(1 0 0 1 13.5678 184.0038)"><tspan x="0" y="0" class="st2 st3">W  E     </tspan><tspan x="77.6" y="0" class="st0 st2 st3">C  O  D  E</tspan></text>
</svg>
